<svg xmlns="http://www.w3.org/2000/svg" width="133.008" height="127.531" viewBox="0 0 133.008 127.531">
  <g id="Groupe_203" data-name="Groupe 203" transform="translate(-190 -272)">
    <g id="Tracé_20" data-name="Tracé 20" transform="translate(190 272)" fill="#fff">
      <path d="M 66.50390625 127.0313568115234 C 57.59065628051758 127.0313568115234 48.9444580078125 125.3577423095703 40.80550765991211 122.0569915771484 C 36.89408874511719 120.4707260131836 33.12158966064453 118.5073928833008 29.59278869628906 116.2215270996094 C 26.09775543212891 113.9575576782227 22.8112735748291 111.3576049804688 19.82458877563477 108.4939270019531 C 16.83828926086426 105.6305770874023 14.12717247009277 102.4799880981445 11.76655578613281 99.12969207763672 C 9.383672714233398 95.74777221679688 7.337106227874756 92.13252258300781 5.683672904968262 88.38436126708984 C 2.244039535522461 80.58697509765625 0.5000062584877014 72.30405426025391 0.5000062584877014 63.76567459106445 C 0.5000062584877014 55.22729110717773 2.244039535522461 46.94437408447266 5.683672904968262 39.14700698852539 C 7.337106227874756 35.39882278442383 9.383672714233398 31.7835750579834 11.76655578613281 28.40167427062988 C 14.12717247009277 25.0513744354248 16.83828926086426 21.90079116821289 19.82458877563477 19.03744125366211 C 22.8112735748291 16.17374038696289 26.09775543212891 13.57380771636963 29.59278869628906 11.30982494354248 C 33.12158966064453 9.023974418640137 36.89408874511719 7.060641288757324 40.80550765991211 5.474374771118164 C 48.9444580078125 2.173624515533447 57.59065628051758 0.5000079274177551 66.50390625 0.5000079274177551 C 75.41716003417969 0.5000079274177551 84.0633544921875 2.173624515533447 92.20232391357422 5.474374771118164 C 96.11372375488281 7.060641288757324 99.88623809814453 9.023974418640137 103.4150390625 11.30982494354248 C 106.9100723266602 13.57380771636963 110.1965560913086 16.17374038696289 113.1832427978516 19.03744125366211 C 116.1695404052734 21.90079116821289 118.8806533813477 25.0513744354248 121.2412719726562 28.40167427062988 C 123.624153137207 31.7835750579834 125.6707229614258 35.39882278442383 127.3241577148438 39.14700698852539 C 130.7637939453125 46.94437408447266 132.5078277587891 55.22729110717773 132.5078277587891 63.76567459106445 C 132.5078277587891 72.30405426025391 130.7637939453125 80.58697509765625 127.3241577148438 88.38436126708984 C 125.6707229614258 92.13252258300781 123.624153137207 95.74777221679688 121.2412719726562 99.12969207763672 C 118.8806533813477 102.4799880981445 116.1695404052734 105.6305770874023 113.1832427978516 108.4939270019531 C 110.1965560913086 111.3576049804688 106.9100723266602 113.9575576782227 103.4150390625 116.2215270996094 C 99.88623809814453 118.5073928833008 96.11372375488281 120.4707260131836 92.20232391357422 122.0569915771484 C 84.0633544921875 125.3577423095703 75.41716003417969 127.0313568115234 66.50390625 127.0313568115234 Z" stroke="none"/>
      <path d="M 66.50390625 1 C 57.65535736083984 1 49.07239532470703 2.661293029785156 40.99340057373047 5.937713623046875 C 37.11121368408203 7.512130737304688 33.36695861816406 9.460762023925781 29.86461639404297 11.72947692871094 C 26.39607238769531 13.97629547119141 23.13454437255859 16.55647277832031 20.17063140869141 19.39834594726562 C 17.20746612548828 22.23950958251953 14.51743316650391 25.36554718017578 12.17528533935547 28.68965911865234 C 9.811416625976562 32.04458618164062 7.781234741210938 35.63082122802734 6.141143798828125 39.34880065917969 C 2.729721069335938 47.08218383789062 1 55.29721832275391 1 63.76567459106445 C 1 72.234130859375 2.729721069335938 80.44914245605469 6.141143798828125 88.18254852294922 C 7.781234741210938 91.9005126953125 9.811416625976562 95.48677062988281 12.17528533935547 98.8416748046875 C 14.51743316650391 102.1657867431641 17.20746612548828 105.2918395996094 20.17063140869141 108.1330032348633 C 23.13454437255859 110.9748764038086 26.39607238769531 113.5550537109375 29.86461639404297 115.801872253418 C 33.36695861816406 118.0705871582031 37.11121368408203 120.0192184448242 40.99340057373047 121.593635559082 C 49.07239532470703 124.8700561523438 57.65535736083984 126.5313491821289 66.50390625 126.5313491821289 C 75.35244750976562 126.5313491821289 83.93541717529297 124.8700561523438 92.01441955566406 121.593635559082 C 95.89659881591797 120.0192184448242 99.64085388183594 118.0705871582031 103.143196105957 115.801872253418 C 106.6117401123047 113.5550537109375 109.8732681274414 110.9748764038086 112.8371810913086 108.1330032348633 C 115.8003387451172 105.2918395996094 118.4903793334961 102.1657867431641 120.8325271606445 98.8416748046875 C 123.1963958740234 95.48677062988281 125.2265777587891 91.9005126953125 126.8666687011719 88.18254852294922 C 130.2780914306641 80.44914245605469 132.0078125 72.234130859375 132.0078125 63.76567459106445 C 132.0078125 55.29721832275391 130.2780914306641 47.08218383789062 126.8666687011719 39.34880065917969 C 125.2265777587891 35.63082122802734 123.1963958740234 32.04458618164062 120.8325271606445 28.68965911865234 C 118.4903793334961 25.36554718017578 115.8003387451172 22.23950958251953 112.8371810913086 19.39834594726562 C 109.8732681274414 16.55647277832031 106.6117401123047 13.97629547119141 103.143196105957 11.72947692871094 C 99.64085388183594 9.460762023925781 95.89659881591797 7.512130737304688 92.01441955566406 5.937713623046875 C 83.93541717529297 2.661293029785156 75.35244750976562 1 66.50390625 1 M 66.50390625 0 C 103.2330017089844 0 133.0078125 28.54885864257812 133.0078125 63.76567459106445 C 133.0078125 98.98247528076172 103.2330017089844 127.5313491821289 66.50390625 127.5313491821289 C 29.77481842041016 127.5313491821289 0 98.98247528076172 0 63.76567459106445 C 0 28.54885864257812 29.77481842041016 0 66.50390625 0 Z" stroke="none" fill="#707070"/>
    </g>
    <path id="Icon_ionic-ios-person" data-name="Icon ionic-ios-person" d="M73.691,66.644c-1.3-5.28-8.708-7.853-11.268-8.683-2.812-.913-6.815-1.129-9.393-1.66-1.478-.3-3.624-1.046-4.345-1.843s-.288-8.185-.288-8.185a24.06,24.06,0,0,0,2.055-3.6,43.322,43.322,0,0,0,1.514-6.292s1.478,0,2-2.391c.559-2.607,1.442-3.619,1.334-5.562-.108-1.909-1.244-1.859-1.244-1.859s1.1-2.773,1.226-8.517C55.447,11.224,49.642,4.5,39.131,4.5,28.476,4.5,22.8,11.224,22.96,18.048a28.163,28.163,0,0,0,1.208,8.517s-1.136-.05-1.244,1.859c-.108,1.942.775,2.955,1.334,5.562.5,2.391,2,2.391,2,2.391a43.321,43.321,0,0,0,1.514,6.292,24.06,24.06,0,0,0,2.055,3.6s.433,7.388-.288,8.185S26.674,56,25.2,56.3c-2.578.531-6.58.747-9.393,1.66-2.56.83-9.97,3.4-11.268,8.683a1.361,1.361,0,0,0,1.424,1.61H72.285A1.357,1.357,0,0,0,73.691,66.644Z" transform="translate(217.391 299.389)" fill="#6c6c6c"/>
  </g>
</svg>
